# xmcd CD database file
#
# Track frame offsets:
#	150
#	8593
#	20393
#	27114
#	38763
#	44360
#	54978
#	66422
#	74264
#	82230
#	90261
#	98468
#	104160
#	113397
#	123873
#	131829
#	140734
#	148991
#	157378
#	166779
#	174489
#	183606
#	191367
#	198323
#	205981
#	214100
#
# Disc length: 2985 seconds
#
# Revision: 2
# Processed by: cddbd v1.4PL0 Copyright (c) Steve Scherf et al.
# Submitted via: CDex 1.40Beta9
#
DISCID=720ba71a
DTITLE=Loren Mazzacane Connors - Portrait of a Soul
DYEAR=2000
DGENRE=Instrumental
TTITLE0=Day 1
TTITLE1=Day 2
TTITLE2=Day 3
TTITLE3=Day 4
TTITLE4=Day 5
TTITLE5=Day 6
TTITLE6=Day 7
TTITLE7=Day 8
TTITLE8=Day 9
TTITLE9=Day 10
TTITLE10=Day 11
TTITLE11=Day 12
TTITLE12=Day 13
TTITLE13=Day 14
TTITLE14=Evening 1
TTITLE15=Evening 2
TTITLE16=Evening 3
TTITLE17=Evening 4
TTITLE18=Evening 5
TTITLE19=Night 1
TTITLE20=Night 2
TTITLE21=Night 3
TTITLE22=Night 4
TTITLE23=Dawn 1
TTITLE24=Dawn 2
TTITLE25=Dawn 3
EXTD=YEAR: 2000 ID3G: 33
EXTT0=
EXTT1=
EXTT2=
EXTT3=
EXTT4=
EXTT5=
EXTT6=
EXTT7=
EXTT8=
EXTT9=
EXTT10=
EXTT11=
EXTT12=
EXTT13=
EXTT14=
EXTT15=
EXTT16=
EXTT17=
EXTT18=
EXTT19=
EXTT20=
EXTT21=
EXTT22=
EXTT23=
EXTT24=
EXTT25=
PLAYORDER=
